<?xml version="1.0" encoding="UTF-8" standalone="no"?>
<svg width="128" height="128" viewBox="0 0 128 128" xmlns="http://www.w3.org/2000/svg">
  <!-- Background circle with gradient -->
  <defs>
    <radialGradient id="pinkGradient" cx="50%" cy="50%" r="70%" fx="50%" fy="50%">
      <stop offset="0%" stop-color="#FFF0F5" />
      <stop offset="100%" stop-color="#FFCDD2" />
    </radialGradient>
  </defs>
  
  <!-- Background circle -->
  <circle cx="64" cy="64" r="60" fill="url(#pinkGradient)" stroke="#F06292" stroke-width="2"/>
  
  <!-- Swirl pattern -->
  <path d="M64,24 
           C44,24 28,40 28,60 
           C28,80 40,92 60,96
           C80,100 96,84 92,64
           C88,44 80,36 60,40
           C40,44 36,60 52,72
           C68,84 84,68 76,52
           C68,36 52,44 56,60
           C60,76 72,72 68,60
           C64,48 56,52 60,60" 
        fill="none" stroke="#F06292" stroke-width="3" stroke-linecap="round"/>
  
  <!-- Scattered sparkles -->
  <!-- Sparkle 1 -->
  <path d="M40,40 L44,36 L48,40 L44,44 Z" fill="#EC407A" transform="rotate(15, 44, 40)"/>
  
  <!-- Sparkle 2 -->
  <path d="M88,52 L92,48 L96,52 L92,56 Z" fill="#EC407A" transform="rotate(45, 92, 52)"/>
  
  <!-- Sparkle 3 -->
  <path d="M70,86 L74,82 L78,86 L74,90 Z" fill="#EC407A" transform="rotate(-15, 74, 86)"/>
  
  <!-- Sparkle 4 -->
  <path d="M32,72 L36,68 L40,72 L36,76 Z" fill="#EC407A" transform="rotate(30, 36, 72)"/>
  
  <!-- Sparkle 5 (smaller) -->
  <path d="M56,32 L58,30 L60,32 L58,34 Z" fill="#EC407A" transform="rotate(60, 58, 32)"/>
  
  <!-- Sparkle 6 (smaller) -->
  <path d="M84,76 L86,74 L88,76 L86,78 Z" fill="#EC407A" transform="rotate(75, 86, 76)"/>
  
  <!-- Sparkle 7 (tiny) -->
  <circle cx="64" cy="48" r="1.5" fill="#F8BBD0"/>
  
  <!-- Sparkle 8 (tiny) -->
  <circle cx="78" cy="64" r="1.5" fill="#F8BBD0"/>
  
  <!-- Sparkle 9 (tiny) -->
  <circle cx="50" cy="78" r="1.5" fill="#F8BBD0"/>
  
  <!-- Delicate iridescent highlights -->
  <path d="M64,35 C75,40 75,50 70,60" fill="none" stroke="#FFFFFF" stroke-width="1.5" stroke-opacity="0.6" stroke-linecap="round"/>
  <path d="M80,64 C75,75 65,75 55,70" fill="none" stroke="#FFFFFF" stroke-width="1.5" stroke-opacity="0.6" stroke-linecap="round"/>
</svg>